<svg width="150" height="40" viewBox="0 0 150 40" fill="none" xmlns="http://www.w3.org/2000/svg">
  <path d="M10 10H14V30H10V10Z" fill="white"/>
  <path d="M40 10L36 30H32L28 10H32L34 24L36 10H40Z" fill="white"/>
  <path d="M44 10H48V30H44V10Z" fill="white"/>
  <path d="M53 30V10H57V26H63V30H53Z" fill="white"/>
  <path d="M68 10H76V14H72V18H75V22H72V26H76V30H68V10Z" fill="white"/>
  <path d="M86 10H82V30H86V10Z" fill="white"/>
  <path d="M90 10H94L97 24L100 10H104L98 30H96L90 10Z" fill="white"/>
  <path d="M108 10H112V30H108V10Z" fill="white"/>
  <path d="M117 30V10H121V26H127V30H117Z" fill="white"/>
  <path d="M132 10H140V14H136V18H139V22H136V26H140V30H132V10Z" fill="white"/>
  <circle cx="22" cy="20" r="8" fill="#00C170"/>
</svg> 